<mxfile host="app.diagrams.net" modified="2021-03-12T20:42:46.332Z" agent="5.0 (Windows NT 10.0; Win64; x64) AppleWebKit/537.36 (KHTML, like Gecko) Chrome/89.0.4389.82 Safari/537.36" etag="aLsz2v9rDFs7CpF-OMxB" version="14.4.7" type="github">
  <diagram name="Page-1" id="03018318-947c-dd8e-b7a3-06fadd420f32">
    <mxGraphModel dx="1876" dy="836" grid="1" gridSize="10" guides="1" tooltips="1" connect="1" arrows="1" fold="1" page="1" pageScale="1" pageWidth="1100" pageHeight="850" background="#ffffff" math="0" shadow="0">
      <root>
        <mxCell id="0" />
        <mxCell id="1" parent="0" />
        <mxCell id="677b7b8949515195-1" value="" style="whiteSpace=wrap;html=1;rounded=0;shadow=0;labelBackgroundColor=none;strokeColor=#000000;strokeWidth=1;fillColor=none;fontFamily=Verdana;fontSize=12;fontColor=#000000;align=center;comic=0;" parent="1" vertex="1">
          <mxGeometry x="30" y="10" width="1060" height="810" as="geometry" />
        </mxCell>
        <mxCell id="677b7b8949515195-2" value="Kassogtha&lt;br&gt;Logo" style="whiteSpace=wrap;html=1;rounded=0;shadow=0;labelBackgroundColor=none;strokeWidth=1;fontFamily=Verdana;fontSize=28;align=center;comic=0;" parent="1" vertex="1">
          <mxGeometry x="40" y="28" width="190" height="110" as="geometry" />
        </mxCell>
        <mxCell id="677b7b8949515195-3" value="Search by Topic" style="strokeWidth=1;shadow=0;dashed=0;align=center;html=1;shape=mxgraph.mockup.forms.searchBox;strokeColor=#999999;mainText=;strokeColor2=#008cff;fontColor=#666666;fontSize=17;align=left;spacingLeft=3;rounded=0;labelBackgroundColor=none;comic=0;" parent="1" vertex="1">
          <mxGeometry x="630" y="90" width="430" height="35" as="geometry" />
        </mxCell>
        <mxCell id="677b7b8949515195-8" value="" style="whiteSpace=wrap;html=1;rounded=0;shadow=0;labelBackgroundColor=none;strokeWidth=1;fillColor=none;fontFamily=Verdana;fontSize=12;align=center;comic=0;" parent="1" vertex="1">
          <mxGeometry x="40" y="314" width="440" height="316" as="geometry" />
        </mxCell>
        <mxCell id="677b7b8949515195-9" value="" style="line;strokeWidth=1;html=1;rounded=0;shadow=0;labelBackgroundColor=none;fillColor=none;fontFamily=Verdana;fontSize=14;fontColor=#000000;align=center;comic=0;" parent="1" vertex="1">
          <mxGeometry x="30" y="140" width="1060" height="10" as="geometry" />
        </mxCell>
        <mxCell id="677b7b8949515195-10" value="" style="whiteSpace=wrap;html=1;rounded=0;shadow=0;labelBackgroundColor=none;strokeWidth=1;fillColor=none;fontFamily=Verdana;fontSize=12;align=center;comic=0;" parent="1" vertex="1">
          <mxGeometry x="30" y="160" width="1040" height="50" as="geometry" />
        </mxCell>
        <mxCell id="677b7b8949515195-11" value="Option 1" style="text;html=1;points=[];align=left;verticalAlign=top;spacingTop=-4;fontSize=14;fontFamily=Verdana;comic=0;" parent="1" vertex="1">
          <mxGeometry x="330" y="175" width="60" height="20" as="geometry" />
        </mxCell>
        <mxCell id="677b7b8949515195-12" value="Option 2" style="text;html=1;points=[];align=left;verticalAlign=top;spacingTop=-4;fontSize=14;fontFamily=Verdana;comic=0;" parent="1" vertex="1">
          <mxGeometry x="477" y="175" width="60" height="20" as="geometry" />
        </mxCell>
        <mxCell id="677b7b8949515195-13" value="Option 3" style="text;html=1;points=[];align=left;verticalAlign=top;spacingTop=-4;fontSize=14;fontFamily=Verdana;comic=0;" parent="1" vertex="1">
          <mxGeometry x="623" y="175" width="60" height="20" as="geometry" />
        </mxCell>
        <mxCell id="677b7b8949515195-14" value="Option 4" style="text;html=1;points=[];align=left;verticalAlign=top;spacingTop=-4;fontSize=14;fontFamily=Verdana;comic=0;" parent="1" vertex="1">
          <mxGeometry x="770" y="175" width="60" height="20" as="geometry" />
        </mxCell>
        <mxCell id="677b7b8949515195-16" value="" style="verticalLabelPosition=bottom;shadow=0;align=center;html=1;verticalAlign=top;strokeWidth=1;shape=mxgraph.mockup.graphics.simpleIcon;strokeColor=#999999;rounded=0;labelBackgroundColor=none;fontFamily=Verdana;fontSize=14;fontColor=#000000;comic=0;" parent="1" vertex="1">
          <mxGeometry x="500" y="230" width="570" height="400" as="geometry" />
        </mxCell>
        <mxCell id="677b7b8949515195-26" value="" style="whiteSpace=wrap;html=1;rounded=0;shadow=0;labelBackgroundColor=none;strokeWidth=1;fillColor=none;fontFamily=Verdana;fontSize=12;align=center;comic=0;" parent="1" vertex="1">
          <mxGeometry x="840" y="640" width="230" height="170" as="geometry" />
        </mxCell>
        <mxCell id="677b7b8949515195-27" value="Editable Name 1" style="text;html=1;points=[];align=left;verticalAlign=top;spacingTop=-4;fontSize=14;fontFamily=Verdana;comic=0;" parent="1" vertex="1">
          <mxGeometry x="40" y="324" width="170" height="20" as="geometry" />
        </mxCell>
        <mxCell id="677b7b8949515195-28" value="Entry&amp;nbsp;2" style="text;html=1;points=[];align=left;verticalAlign=top;spacingTop=-4;fontSize=14;fontFamily=Verdana;comic=0;" parent="1" vertex="1">
          <mxGeometry x="40" y="360" width="170" height="20" as="geometry" />
        </mxCell>
        <mxCell id="677b7b8949515195-29" value="Entry 3" style="text;html=1;points=[];align=left;verticalAlign=top;spacingTop=-4;fontSize=14;fontFamily=Verdana;comic=0;" parent="1" vertex="1">
          <mxGeometry x="40" y="395" width="170" height="20" as="geometry" />
        </mxCell>
        <mxCell id="677b7b8949515195-30" value="Entry&amp;nbsp;4" style="text;html=1;points=[];align=left;verticalAlign=top;spacingTop=-4;fontSize=14;fontFamily=Verdana;comic=0;" parent="1" vertex="1">
          <mxGeometry x="40" y="431" width="170" height="20" as="geometry" />
        </mxCell>
        <mxCell id="677b7b8949515195-39" value="Entry&amp;nbsp;5" style="text;html=1;points=[];align=left;verticalAlign=top;spacingTop=-4;fontSize=14;fontFamily=Verdana;comic=0;" parent="1" vertex="1">
          <mxGeometry x="40" y="467" width="170" height="20" as="geometry" />
        </mxCell>
        <mxCell id="677b7b8949515195-42" value="&lt;u&gt;External Links&lt;/u&gt;" style="text;html=1;points=[];align=left;verticalAlign=top;spacingTop=-4;fontSize=14;fontFamily=Verdana;comic=0;" parent="1" vertex="1">
          <mxGeometry x="860" y="653" width="170" height="20" as="geometry" />
        </mxCell>
        <mxCell id="vJfORzCdHwvnL0Lns4A6-2" value="&lt;font style=&quot;font-size: 20px&quot;&gt;Table View&lt;/font&gt;" style="whiteSpace=wrap;html=1;rounded=0;shadow=0;labelBackgroundColor=none;strokeWidth=1;fontFamily=Verdana;fontSize=28;align=center;comic=0;" parent="1" vertex="1">
          <mxGeometry x="50" y="250" width="180" height="52.5" as="geometry" />
        </mxCell>
        <mxCell id="vJfORzCdHwvnL0Lns4A6-3" value="Save" style="strokeWidth=1;shadow=0;dashed=0;align=center;html=1;shape=mxgraph.mockup.buttons.button;strokeColor=#666666;fontColor=#ffffff;mainText=;buttonStyle=round;fontSize=17;fontStyle=1;fillColor=#008cff;whiteSpace=wrap;comic=0;" parent="1" vertex="1">
          <mxGeometry x="65" y="705" width="150" height="50" as="geometry" />
        </mxCell>
        <mxCell id="vJfORzCdHwvnL0Lns4A6-4" value="Download CSV" style="strokeWidth=1;shadow=0;dashed=0;align=center;html=1;shape=mxgraph.mockup.buttons.button;strokeColor=#666666;fontColor=#ffffff;mainText=;buttonStyle=round;fontSize=17;fontStyle=1;fillColor=#008cff;whiteSpace=wrap;comic=0;" parent="1" vertex="1">
          <mxGeometry x="240" y="705" width="150" height="50" as="geometry" />
        </mxCell>
        <mxCell id="vJfORzCdHwvnL0Lns4A6-17" value="&lt;font style=&quot;font-size: 20px&quot;&gt;CSV View of Frames&lt;/font&gt;" style="whiteSpace=wrap;html=1;rounded=0;shadow=0;labelBackgroundColor=none;strokeWidth=1;fontFamily=Verdana;fontSize=28;align=center;comic=0;" parent="1" vertex="1">
          <mxGeometry x="670" y="372" width="230" height="95" as="geometry" />
        </mxCell>
        <mxCell id="vJfORzCdHwvnL0Lns4A6-20" value="Cthuhlu" style="text;html=1;points=[];align=left;verticalAlign=top;spacingTop=-4;fontSize=14;fontFamily=Verdana;comic=0;" parent="1" vertex="1">
          <mxGeometry x="860" y="690" width="170" height="20" as="geometry" />
        </mxCell>
        <mxCell id="vJfORzCdHwvnL0Lns4A6-21" value="Sharkopoda" style="text;html=1;points=[];align=left;verticalAlign=top;spacingTop=-4;fontSize=14;fontFamily=Verdana;comic=0;" parent="1" vertex="1">
          <mxGeometry x="860" y="720" width="170" height="20" as="geometry" />
        </mxCell>
        <mxCell id="7geKibtIcQ9l02XyImvZ-1" value="Upload CSV" style="strokeWidth=1;shadow=0;dashed=0;align=center;html=1;shape=mxgraph.mockup.buttons.button;strokeColor=#666666;fontColor=#ffffff;mainText=;buttonStyle=round;fontSize=17;fontStyle=1;fillColor=#008cff;whiteSpace=wrap;comic=0;" vertex="1" parent="1">
          <mxGeometry x="417" y="705" width="150" height="50" as="geometry" />
        </mxCell>
        <mxCell id="7geKibtIcQ9l02XyImvZ-6" value="" style="endArrow=none;html=1;entryX=0.5;entryY=1;entryDx=0;entryDy=0;exitX=0.5;exitY=0;exitDx=0;exitDy=0;" edge="1" parent="1" source="677b7b8949515195-8" target="677b7b8949515195-8">
          <mxGeometry width="50" height="50" relative="1" as="geometry">
            <mxPoint x="240" y="502" as="sourcePoint" />
            <mxPoint x="290" y="452" as="targetPoint" />
          </mxGeometry>
        </mxCell>
        <mxCell id="7geKibtIcQ9l02XyImvZ-7" value="SEEK" style="strokeWidth=1;shadow=0;dashed=0;align=center;html=1;shape=mxgraph.mockup.buttons.button;strokeColor=#666666;fontColor=#ffffff;mainText=;buttonStyle=round;fontSize=17;fontStyle=1;fillColor=#008cff;whiteSpace=wrap;comic=0;" vertex="1" parent="1">
          <mxGeometry x="190" y="360" width="60" height="20" as="geometry" />
        </mxCell>
        <mxCell id="7geKibtIcQ9l02XyImvZ-8" value="SEEK" style="strokeWidth=1;shadow=0;dashed=0;align=center;html=1;shape=mxgraph.mockup.buttons.button;strokeColor=#666666;fontColor=#ffffff;mainText=;buttonStyle=round;fontSize=17;fontStyle=1;fillColor=#008cff;whiteSpace=wrap;comic=0;" vertex="1" parent="1">
          <mxGeometry x="190" y="395" width="60" height="20" as="geometry" />
        </mxCell>
        <mxCell id="7geKibtIcQ9l02XyImvZ-9" value="SEEK" style="strokeWidth=1;shadow=0;dashed=0;align=center;html=1;shape=mxgraph.mockup.buttons.button;strokeColor=#666666;fontColor=#ffffff;mainText=;buttonStyle=round;fontSize=17;fontStyle=1;fillColor=#008cff;whiteSpace=wrap;comic=0;" vertex="1" parent="1">
          <mxGeometry x="190" y="431" width="60" height="20" as="geometry" />
        </mxCell>
        <mxCell id="7geKibtIcQ9l02XyImvZ-10" value="SEEK" style="strokeWidth=1;shadow=0;dashed=0;align=center;html=1;shape=mxgraph.mockup.buttons.button;strokeColor=#666666;fontColor=#ffffff;mainText=;buttonStyle=round;fontSize=17;fontStyle=1;fillColor=#008cff;whiteSpace=wrap;comic=0;" vertex="1" parent="1">
          <mxGeometry x="190" y="467" width="60" height="20" as="geometry" />
        </mxCell>
        <mxCell id="7geKibtIcQ9l02XyImvZ-11" value="SEEK" style="strokeWidth=1;shadow=0;dashed=0;align=center;html=1;shape=mxgraph.mockup.buttons.button;strokeColor=#666666;fontColor=#ffffff;mainText=;buttonStyle=round;fontSize=17;fontStyle=1;fillColor=#008cff;whiteSpace=wrap;comic=0;" vertex="1" parent="1">
          <mxGeometry x="190" y="324" width="60" height="20" as="geometry" />
        </mxCell>
        <mxCell id="7geKibtIcQ9l02XyImvZ-12" value="" style="endArrow=none;html=1;entryX=0.014;entryY=-0.05;entryDx=0;entryDy=0;exitX=1.002;exitY=0.145;exitDx=0;exitDy=0;entryPerimeter=0;exitPerimeter=0;" edge="1" parent="1" source="677b7b8949515195-8" target="677b7b8949515195-28">
          <mxGeometry width="50" height="50" relative="1" as="geometry">
            <mxPoint x="300" y="230" as="sourcePoint" />
            <mxPoint x="300" y="546" as="targetPoint" />
          </mxGeometry>
        </mxCell>
        <mxCell id="7geKibtIcQ9l02XyImvZ-13" value="" style="endArrow=none;html=1;entryX=0.014;entryY=-0.05;entryDx=0;entryDy=0;exitX=1.002;exitY=0.145;exitDx=0;exitDy=0;entryPerimeter=0;exitPerimeter=0;" edge="1" parent="1">
          <mxGeometry width="50" height="50" relative="1" as="geometry">
            <mxPoint x="480.0000000000001" y="395.81999999999994" as="sourcePoint" />
            <mxPoint x="41.50000000000011" y="395" as="targetPoint" />
          </mxGeometry>
        </mxCell>
        <mxCell id="7geKibtIcQ9l02XyImvZ-14" value="" style="endArrow=none;html=1;entryX=0.014;entryY=-0.05;entryDx=0;entryDy=0;exitX=1.002;exitY=0.145;exitDx=0;exitDy=0;entryPerimeter=0;exitPerimeter=0;" edge="1" parent="1">
          <mxGeometry width="50" height="50" relative="1" as="geometry">
            <mxPoint x="478.5000000000001" y="425.81999999999994" as="sourcePoint" />
            <mxPoint x="40.000000000000114" y="425" as="targetPoint" />
          </mxGeometry>
        </mxCell>
        <mxCell id="7geKibtIcQ9l02XyImvZ-15" value="" style="endArrow=none;html=1;entryX=0.014;entryY=-0.05;entryDx=0;entryDy=0;exitX=1.002;exitY=0.145;exitDx=0;exitDy=0;entryPerimeter=0;exitPerimeter=0;" edge="1" parent="1">
          <mxGeometry width="50" height="50" relative="1" as="geometry">
            <mxPoint x="477.0000000000001" y="466.81999999999994" as="sourcePoint" />
            <mxPoint x="38.50000000000011" y="466" as="targetPoint" />
          </mxGeometry>
        </mxCell>
        <mxCell id="7geKibtIcQ9l02XyImvZ-16" value="" style="endArrow=none;html=1;entryX=0.014;entryY=-0.05;entryDx=0;entryDy=0;exitX=1.002;exitY=0.145;exitDx=0;exitDy=0;entryPerimeter=0;exitPerimeter=0;" edge="1" parent="1">
          <mxGeometry width="50" height="50" relative="1" as="geometry">
            <mxPoint x="479.2500000000001" y="500.81999999999994" as="sourcePoint" />
            <mxPoint x="40.75000000000011" y="500" as="targetPoint" />
          </mxGeometry>
        </mxCell>
        <mxCell id="vJfORzCdHwvnL0Lns4A6-18" value="" style="verticalLabelPosition=bottom;shadow=0;dashed=0;align=center;html=1;verticalAlign=top;strokeWidth=1;shape=mxgraph.mockup.navigation.scrollBar;strokeColor=#999999;barPos=20;fillColor2=#000000;strokeColor2=none;direction=north;fillColor=#ffffff;comic=0;" parent="1" vertex="1">
          <mxGeometry x="450" y="324" width="20" height="300" as="geometry" />
        </mxCell>
      </root>
    </mxGraphModel>
  </diagram>
</mxfile>
